<?xml version="1.0" encoding="UTF-8" standalone="no"?>
<!-- Created with Inkscape (http://www.inkscape.org/) -->

<svg
   version="1.1"
   id="svg182"
   width="35"
   height="25.000179"
   viewBox="0 0 35 25.00018"
   sodipodi:docname="bath.svg"
   inkscape:export-filename="trosky.svg"
   inkscape:export-xdpi="96"
   inkscape:export-ydpi="96"
   inkscape:version="1.3.2 (091e20e, 2023-11-25, custom)"
   xml:space="preserve"
   xmlns:inkscape="http://www.inkscape.org/namespaces/inkscape"
   xmlns:sodipodi="http://sodipodi.sourceforge.net/DTD/sodipodi-0.dtd"
   xmlns="http://www.w3.org/2000/svg"
   xmlns:svg="http://www.w3.org/2000/svg"><defs
     id="defs186" /><sodipodi:namedview
     id="namedview184"
     pagecolor="#ffffff"
     bordercolor="#000000"
     borderopacity="0.25"
     inkscape:showpageshadow="2"
     inkscape:pageopacity="0.0"
     inkscape:pagecheckerboard="0"
     inkscape:deskcolor="#d1d1d1"
     showgrid="false"
     inkscape:zoom="11.313709"
     inkscape:cx="19.931572"
     inkscape:cy="-2.7842329"
     inkscape:window-width="1920"
     inkscape:window-height="1009"
     inkscape:window-x="1912"
     inkscape:window-y="-8"
     inkscape:window-maximized="1"
     inkscape:current-layer="g188" /><g
     inkscape:groupmode="layer"
     inkscape:label="Image"
     id="g188"
     transform="translate(-167.03488,-514.74123)"><path
       style="fill:#efb60b;stroke:none;stroke-width:0.0488281;fill-opacity:1"
       d="m 173.55106,526.85084 c -1.98589,0.354 -1.98447,3.74782 0,4.10157 0,2.49528 -0.0994,5.51585 2.58789,6.7871 -0.20252,0.28751 -0.72853,0.58809 -0.8132,0.92774 -0.0752,0.30158 0.71223,0.87559 0.91086,1.07422 h 0.0488 c 0.36376,-0.36377 0.96121,-1.24654 1.46484,-1.37261 0.30772,-0.077 0.7511,0.0542 1.07422,0.0542 h 2.73437 7.03125 c 0.66669,0 1.33549,0.0156 2.00196,-7.1e-4 0.23518,-0.006 0.55673,-0.12935 0.78125,-0.0385 0.51275,0.20755 1.02602,0.96755 1.41601,1.35754 h 0.0488 c 0.19863,-0.19863 0.98604,-0.77264 0.91086,-1.07422 -0.0847,-0.33964 -0.61068,-0.64023 -0.8132,-0.92773 2.6869,-1.2711 2.58789,-4.29259 2.58789,-6.78711 1.62869,-0.29033 1.9113,-2.57207 0.8745,-3.60888 -0.77687,-0.77687 -1.87444,-0.63917 -2.87645,-0.63917 -0.27627,0 -0.71005,0.082 -0.96617,-0.0295 -0.22822,-0.0993 -0.3521,-0.51588 -0.51337,-0.70277 -0.30892,-0.358 -0.74712,-0.58372 -1.20601,-0.68307 -0.5456,-0.11812 -1.15295,-0.0495 -1.70899,-0.0495 -0.83548,0 -1.80814,-0.14441 -2.58789,0.21057 -0.3309,0.15064 -0.61853,0.37396 -0.83362,0.66833 -0.1411,0.19313 -0.22076,0.5348 -0.48685,0.57871 -1.0455,0.17251 -2.25727,0.007 -3.3182,0.007 h -6.88477 v -6.29883 c 0,-0.90654 -0.20339,-2.09549 0.2137,-2.92969 0.55186,-1.10371 1.56182,-1.26953 2.66716,-1.26953 1.24579,0 2.42047,0.21262 2.88086,1.5625 -2.11716,0.4898 -2.83203,2.34418 -2.83203,4.29688 h 7.32422 c 0,-1.45847 -0.25185,-2.7827 -1.51367,-3.70318 -0.39111,-0.28531 -1.12186,-0.35703 -1.4361,-0.67127 -0.17299,-0.17299 -0.20601,-0.57727 -0.31105,-0.80133 -0.23795,-0.50756 -0.55984,-0.93793 -0.98723,-1.30371 -0.84555,-0.72366 -1.86413,-0.84473 -2.92968,-0.84473 -1.39354,0 -2.60436,0.13707 -3.60888,1.2207 -1.01015,1.08972 -0.93214,2.47859 -0.93214,3.85742 v 7.03125 m 10.10742,-6.25 h -4.10156 c 0.34912,-1.93458 3.75244,-1.93457 4.10156,0 m 7.47071,10.49805 h -4.39453 v -2.83203 c 0,-0.3707 -0.093,-0.88937 0.10881,-1.21874 0.21783,-0.3556 0.59788,-0.34376 0.96541,-0.34376 h 2.34375 c 0.33946,1.5e-4 0.67081,0.0223 0.86775,0.34376 0.20177,0.32937 0.10881,0.84803 0.10881,1.21874 v 2.83203 m -5.85938,-2.92969 v 1.46485 h -9.0332 c -0.71104,0 -2.73046,0.37018 -2.73046,-0.73242 0,-1.1026 2.01942,-0.73243 2.73046,-0.73243 h 9.0332 m 7.32422,1.46485 v -1.46485 c 0.71835,0 1.87508,-0.22109 2.53888,0.06 0.48465,0.20523 0.58732,0.88972 0.1863,1.23114 -0.24556,0.20908 -0.56945,0.17373 -0.86971,0.17373 h -1.85547 m -7.32422,1.46484 v 1.46485 h 7.32422 v -1.46456 h 1.46485 c 0,1.69607 0.25621,3.58881 -1.12742,4.86191 -1.14854,1.05677 -2.49332,0.99747 -3.95071,0.99747 h -8.4961 c -1.57082,0 -3.09531,0.14899 -4.34133,-0.99747 -1.38523,-1.27456 -1.12742,-3.16391 -1.12742,-4.86191 z"
       id="path3" /></g></svg>
