<?xml version="1.0" encoding="UTF-8" standalone="no"?>
<!-- Created with Inkscape (http://www.inkscape.org/) -->

<svg
   version="1.1"
   id="svg182"
   width="35"
   height="25.000179"
   viewBox="0 0 35 25.00018"
   sodipodi:docname="cook.svg"
   inkscape:export-filename="trosky.svg"
   inkscape:export-xdpi="96"
   inkscape:export-ydpi="96"
   inkscape:version="1.3.2 (091e20e, 2023-11-25, custom)"
   xml:space="preserve"
   xmlns:inkscape="http://www.inkscape.org/namespaces/inkscape"
   xmlns:sodipodi="http://sodipodi.sourceforge.net/DTD/sodipodi-0.dtd"
   xmlns="http://www.w3.org/2000/svg"
   xmlns:svg="http://www.w3.org/2000/svg"><defs
     id="defs186" /><sodipodi:namedview
     id="namedview184"
     pagecolor="#ffffff"
     bordercolor="#000000"
     borderopacity="0.25"
     inkscape:showpageshadow="2"
     inkscape:pageopacity="0.0"
     inkscape:pagecheckerboard="0"
     inkscape:deskcolor="#d1d1d1"
     showgrid="false"
     inkscape:zoom="8"
     inkscape:cx="-11.8125"
     inkscape:cy="27.3125"
     inkscape:window-width="1920"
     inkscape:window-height="1009"
     inkscape:window-x="1912"
     inkscape:window-y="-8"
     inkscape:window-maximized="1"
     inkscape:current-layer="g188" /><g
     inkscape:groupmode="layer"
     inkscape:label="Image"
     id="g188"
     transform="translate(-167.03488,-514.74123)"><path
       style="fill:#efb60b;fill-opacity:1;stroke:#efb60b;stroke-width:0.292351;stroke-dasharray:none;stroke-opacity:1"
       d="m 188.09378,526.18708 v 0.0982 c -0.91882,0.31083 -1.3804,0.6697 -1.98384,1.42406 -0.14262,0.17828 -0.50857,0.82804 -0.76799,0.7839 -0.2356,-0.0401 -0.50386,-0.35375 -0.68553,-0.49909 -0.62127,-0.49702 -1.50571,-1.17486 -1.70328,-2.00351 -0.11038,-0.46295 0.0806,-0.96484 -0.0836,-1.42405 -0.14174,-0.39646 -0.52828,-0.47707 -0.71617,-0.79615 -0.16068,-0.2729 -0.11844,-1.20455 -0.0349,-1.50893 0.0841,-0.30619 0.58044,-0.17657 0.81919,-0.24542 0.45351,-0.13075 0.79603,-0.5688 0.83034,-1.03419 0.0514,-0.69639 0.005,-1.41319 0.005,-2.11153 0,-0.35054 0.057,-0.75361 -0.0941,-1.08033 -0.39852,-0.86229 -1.42724,-0.73658 -2.21387,-0.73658 -0.37354,0 -0.7816,-0.0176 -1.12942,0.14318 -1.06049,0.49054 -0.73659,2.1537 -0.73659,3.09777 0,0.42437 -0.009,0.92516 0.26485,1.27672 0.18391,0.23604 0.42042,0.41201 0.71726,0.46812 0.25101,0.0475 0.67322,-0.0755 0.7293,0.26944 0.0533,0.32848 0.12677,1.1731 -0.0431,1.46175 -0.187,0.31756 -0.58409,0.40397 -0.72866,0.79615 -0.22746,0.61704 -0.0775,1.36993 -0.1067,2.01332 -0.0144,0.31901 -0.12837,0.60801 -0.0816,0.933 0.14647,1.01656 1.1705,1.3085 1.85125,1.9075 0.62012,0.54561 1.24831,1.0822 1.86601,1.63055 0.51777,0.45964 1.01923,0.93536 1.7678,0.75708 0.5902,-0.14057 1.18634,-0.80166 1.62047,-1.2015 l -0.68747,6.53102 h -7.31687 c 0.16981,-0.29094 0.27846,-0.67512 0.51022,-0.92202 0.38274,-0.40768 0.8526,-0.53516 1.11564,-1.09129 0.26534,-0.56099 0.005,-1.18485 0.22067,-1.71354 0.088,-0.21512 0.39452,-0.31859 0.54292,-0.49697 0.34931,-0.41987 0.35077,-1.08291 0.0345,-1.52132 -0.48085,-0.66651 -1.36269,-0.49125 -2.0802,-0.49125 h -5.54891 c -0.7555,0 -1.71536,-0.13491 -2.05659,0.7366 -0.18305,0.46748 -0.094,0.99771 0.25568,1.36586 0.1341,0.14115 0.36902,0.2194 0.44544,0.40704 0.23108,0.56747 -0.0291,1.21536 0.29107,1.81179 0.26638,0.4961 0.73527,0.62142 1.08221,1.00128 0.21352,0.23378 0.35241,0.6236 0.47325,0.91382 -0.65253,0 -1.81515,-0.22468 -2.40348,0.0704 -0.44988,0.22565 -0.25039,1.37115 -0.24818,1.79561 9.9e-4,0.1935 7.7e-4,0.4123 0.16664,0.54538 0.31365,0.25166 1.16475,0.0929 1.55201,0.0929 h 4.22306 13.45488 3.83023 c 0.45098,0 1.20138,0.14403 1.6153,-0.0421 0.18087,-0.0813 0.23796,-0.26551 0.24857,-0.44892 0.0249,-0.43051 0.19613,-1.65689 -0.19964,-1.92207 -0.22365,-0.14987 -0.57421,-0.0912 -0.82945,-0.0912 h -1.96421 l -0.58927,-5.84353 h 0.0491 c 0.1719,0.36335 0.47274,0.66071 0.62754,1.0312 0.23676,0.56666 0.13082,1.16512 0.64996,1.6043 0.83945,0.71016 2.17145,0.17022 2.2981,-0.91682 0.0865,-0.74202 -0.50866,-1.5481 -0.85395,-2.16063 -0.52167,-0.92539 -1.02166,-1.86509 -1.52796,-2.79901 -0.2105,-0.3883 -0.40012,-0.943 -0.72859,-1.24541 -0.28747,-0.26467 -0.87564,-0.43349 -1.25078,-0.52238 0.96193,-0.92834 1.5679,-2.11304 1.35339,-3.48648 -0.0826,-0.52834 -0.40186,-1.00151 -0.46101,-1.52227 -0.053,-0.46704 -0.30327,-1.37498 -0.12616,-1.81179 0.0915,-0.22582 0.42426,-0.35056 0.59399,-0.51772 0.39344,-0.38747 0.53199,-0.92451 0.38337,-1.4516 -0.16523,-0.58607 -0.69784,-0.96478 -1.25253,-1.1419 -0.19585,-0.0625 -0.45217,-0.0426 -0.62931,-0.14364 -0.30456,-0.17355 -0.49546,-0.57635 -0.79475,-0.78746 -0.82696,-0.58336 -1.94952,-0.5592 -2.79899,-0.0421 -0.35097,0.21363 -0.54311,0.65518 -0.88587,0.83706 -0.65818,0.34924 -1.28031,0.21457 -1.72263,0.98344 -0.33188,0.57687 -0.21251,1.29468 0.25602,1.7632 0.16658,0.16659 0.51733,0.27514 0.60343,0.5008 0.162,0.42458 -0.0862,1.36079 -0.1528,1.81175 -0.0679,0.45884 -0.3244,0.8674 -0.41554,1.32584 -0.22377,1.12552 0.11756,3.03938 1.28617,3.58469 m 4.86144,-4.51769 h -4.91055 c 5e-5,-0.62086 0.0939,-1.24844 0.15561,-1.86601 0.0237,-0.23696 0.11552,-0.55314 0.0416,-0.78549 -0.17574,-0.55276 -1.4752,-0.56475 -1.00393,-1.42228 0.33708,-0.61333 1.00309,-0.3407 1.49203,-0.60002 0.31355,-0.16631 0.44776,-0.62419 0.73874,-0.84912 0.63871,-0.49372 1.62406,-0.41579 2.20118,0.1361 0.21984,0.21023 0.32161,0.57773 0.59855,0.72045 0.51551,0.26564 1.30207,-0.0288 1.53852,0.73794 0.24707,0.80122 -0.8908,0.72922 -1.06523,1.27749 -0.0863,0.27128 0.0188,0.65435 0.0521,0.93225 0.0674,0.56382 0.14962,1.1513 0.16134,1.71869 m -12.07989,-3.76494 c 0.12989,-0.0233 0.34228,-0.0447 0.41227,0.0977 0.0919,0.1868 0.0296,0.51695 0.0296,0.72098 v 1.71869 c 0,0.20407 0.10099,0.74473 -0.15459,0.81914 -0.27106,0.0788 -0.60215,-0.0579 -0.68982,-0.32885 -0.21267,-0.65727 -0.1173,-1.86708 -0.0303,-2.55272 0.033,-0.25971 0.17085,-0.42784 0.43289,-0.47488 m 1.34141,0.0134 c 0.26516,-0.12989 0.64477,0.0496 0.73061,0.31487 0.21077,0.65142 0.0475,1.62364 0.0393,2.30719 -0.003,0.25898 -0.0346,0.53994 -0.29538,0.66618 -0.14244,0.069 -0.4697,0.13745 -0.55869,-0.0434 -0.0919,-0.18679 -0.0296,-0.51695 -0.0296,-0.72096 v -1.66959 c 0,-0.19534 -0.097,-0.751 0.11382,-0.85427 m 5.43509,4.58628 h 4.12486 c 0.33194,0 1.22292,-0.15837 1.486,0.0505 0.16532,0.13124 0.14743,0.54458 0.1544,0.73523 0.0302,0.82684 -0.33506,1.68802 -0.95733,2.23602 -1.40625,1.23846 -3.684,0.8519 -4.56782,-0.81197 -0.39186,-0.73769 -0.30247,-1.42068 -0.24011,-2.20974 m -5.49981,3.24096 -0.88389,0.0982 c 0,-0.29594 -0.0731,-0.71016 0.0647,-0.98116 0.14568,-0.28639 0.54781,-0.33013 0.72401,-0.0472 0.15861,0.25473 0.0952,0.64386 0.0952,0.93012 m -5.45069,0.0982 v 0.83479 h 0.83478 v -0.83479 h -0.83478 m 5.00875,0.75593 c 0.43353,-0.0995 1.17592,0.3497 1.0863,0.86454 -0.0307,0.17587 -0.23076,0.32358 -0.34973,0.44191 -0.10556,0.10501 -0.23418,0.27385 -0.39284,0.29361 -0.8179,0.10187 -1.2804,-1.38514 -0.34373,-1.60006 m -7.12029,0.0788 v 0.83478 h 0.83479 v -0.83478 h -0.83479 m 4.17396,0.83478 h 0.83478 v -0.83478 c -0.76496,0 -0.83478,0.0699 -0.83478,0.83478 m 13.11114,-0.63836 0.58926,2.30794 h -3.92843 l 0.58927,-2.30794 1.37494,0.22317 1.37496,-0.22317 m -3.68291,0.24552 c -0.0838,0.62239 -0.25147,1.7852 -0.62499,2.2939 -0.25742,0.35055 -0.71182,0.62423 -1.04459,0.9019 -0.27008,0.22534 -0.69219,0.74256 -1.08032,0.69736 -0.32129,-0.0375 -0.60493,-0.38935 -0.83479,-0.58926 -0.62324,-0.54204 -1.25853,-1.07479 -1.86601,-1.63431 v -0.0491 c 0.16294,-0.16294 0.44095,-0.57014 0.68748,-0.58104 0.16184,-0.007 0.32595,0.17419 0.44195,0.26678 l 1.08031,0.86419 c 0.1586,0.12612 0.36557,0.33574 0.58927,0.28081 0.3621,-0.0889 0.6645,-0.6547 0.88389,-0.92895 0.55712,-0.69636 0.92534,-1.19551 1.7678,-1.52227 m 7.51313,4.32128 c -0.21979,0.0619 -0.60135,0.23779 -0.82574,0.16235 -0.30269,-0.10175 -0.57501,-0.74121 -0.74563,-0.99715 -0.68178,-1.02267 -1.22338,-2.18287 -1.32585,-3.43737 0.73293,0.1262 0.9138,0.58483 1.24848,1.17852 0.36582,0.64896 0.72599,1.30449 1.07201,1.96423 0.19266,0.36731 0.45937,0.73044 0.57673,1.12942 m -19.00378,-3.92844 v 2.11154 h 0.83478 v -1.52227 l -0.0787,-0.53879 -0.75605,-0.0505 m -2.11154,0.83479 v 1.66959 h 0.83479 v -1.66959 h -0.83479 m 4.17396,1.66959 h 0.83478 v -1.66959 l -0.75605,0.0505 -0.0787,0.44058 v 1.17853 m 14.6334,7.12028 h -5.79442 l 0.73657,-7.12028 h 3.09365 c 0.26462,0 0.93046,-0.12072 1.14207,0.0505 0.11326,0.0916 0.0891,0.31073 0.10639,0.44059 0.0607,0.45634 0.0858,0.91791 0.14049,1.37495 0.2052,1.71487 0.17545,3.57577 0.57525,5.25428 m -20.03499,-5.43452 c 0.66461,-0.1202 1.43617,-0.0162 2.11154,-0.0162 h 4.22305 c 0.3808,0 0.97824,-0.11165 1.3249,0.0647 0.26259,0.13357 0.33403,0.4997 0.0919,0.69326 -0.39042,0.31214 -1.38232,0.12593 -1.85872,0.12593 h -4.27217 c -0.51196,0 -1.35052,0.15908 -1.81474,-0.0772 -0.4332,-0.22051 -0.20557,-0.71819 0.19426,-0.7905 m 15.71588,0.0694 c -0.40611,0.16549 -0.24768,0.98764 -0.24768,1.33849 0,1.19635 0.95686,2.3426 2.25884,1.82865 0.96055,-0.37917 1.08033,-1.26438 1.08033,-2.17238 0,-0.27419 0.0694,-0.68987 -0.13274,-0.9117 -0.16177,-0.1776 -0.48668,-0.11951 -0.70205,-0.11951 -0.63061,0 -1.67262,-0.20157 -2.2567,0.0365 m 7.06902,0.4055 c 0.0958,0.2303 0.26136,0.47649 0.23306,0.73658 -0.0488,0.44919 -0.57206,0.66169 -0.91519,0.37226 -0.23855,-0.20121 -0.27668,-0.5706 -0.29998,-0.86332 l 0.98211,-0.24552 m -4.81232,0.34373 c 0,0.42003 0.0901,0.95376 -0.14706,1.32509 -0.34039,0.53296 -1.17309,0.47004 -1.44531,-0.0975 -0.16574,-0.34553 -0.0772,-0.8534 -0.0772,-1.2276 h 1.66959 m -10.90139,0.83479 c 0,0.62134 0.11956,1.34403 -0.39497,1.80645 -0.39272,0.35294 -0.88347,0.30508 -1.37283,0.30508 h -3.04453 c -0.51485,0 -1.04771,0.0573 -1.45839,-0.32009 -0.51047,-0.46899 -0.40761,-1.16721 -0.40761,-1.79144 h 6.67833 m -3.73201,2.94632 v 0.8348 c -0.78821,0 -1.17848,0.0177 -1.42405,-0.8348 h 1.42405 m 2.20974,0 c -0.23889,0.82927 -0.60212,0.8348 -1.37495,0.8348 v -0.8348 h 1.37495 m 17.43241,1.66959 v 0.8348 h -23.42326 v -0.8348 z"
       id="path6" /></g></svg>
