<?xml version="1.0" encoding="UTF-8" standalone="no"?>
<!-- Created with Inkscape (http://www.inkscape.org/) -->

<svg
   version="1.1"
   id="svg182"
   width="35"
   height="25.000179"
   viewBox="0 0 35 25.00018"
   sodipodi:docname="dog.svg"
   inkscape:export-filename="trosky.svg"
   inkscape:export-xdpi="96"
   inkscape:export-ydpi="96"
   inkscape:version="1.3.2 (091e20e, 2023-11-25, custom)"
   xml:space="preserve"
   xmlns:inkscape="http://www.inkscape.org/namespaces/inkscape"
   xmlns:sodipodi="http://sodipodi.sourceforge.net/DTD/sodipodi-0.dtd"
   xmlns="http://www.w3.org/2000/svg"
   xmlns:svg="http://www.w3.org/2000/svg"><defs
     id="defs186" /><sodipodi:namedview
     id="namedview184"
     pagecolor="#ffffff"
     bordercolor="#000000"
     borderopacity="0.25"
     inkscape:showpageshadow="2"
     inkscape:pageopacity="0.0"
     inkscape:pagecheckerboard="0"
     inkscape:deskcolor="#d1d1d1"
     showgrid="false"
     inkscape:zoom="11.313709"
     inkscape:cx="4.5519999"
     inkscape:cy="30.007844"
     inkscape:window-width="1920"
     inkscape:window-height="1009"
     inkscape:window-x="1912"
     inkscape:window-y="-8"
     inkscape:window-maximized="1"
     inkscape:current-layer="g188" /><g
     inkscape:groupmode="layer"
     inkscape:label="Image"
     id="g188"
     transform="translate(-167.03488,-514.74123)"><path
       style="fill:#efb60b;fill-opacity:1;stroke:none;stroke-width:0.0568796"
       d="m 174.76739,530.37369 c -0.40328,2.1404 -0.47208,4.67904 0.94813,6.48427 0.98603,1.25335 2.48578,1.96552 4.0004,2.35313 0.96937,0.24808 1.96276,0.37054 2.95773,0.43906 3.47901,0.23958 8.14982,0.20715 10.61942,-2.67843 1.52563,-1.78261 1.44924,-4.4307 1.0409,-6.59803 1.98035,1.04351 4.42097,0.11948 4.71214,-2.21831 0.33337,-2.67657 -0.84468,-5.67683 -2.0535,-8.02002 -0.99861,-1.93572 -2.9112,-2.91812 -4.9907,-3.25614 -0.65838,-0.10702 -1.48108,0.0261 -2.10455,-0.16937 -0.28061,-0.088 -0.50702,-0.37573 -0.73943,-0.5472 -0.42462,-0.31327 -0.88426,-0.57083 -1.36511,-0.78745 -1.62046,-0.72999 -3.75399,-0.80521 -5.46044,-0.35018 -0.74395,0.19837 -1.46458,0.51027 -2.10455,0.93939 -0.32302,0.21659 -0.69667,0.68448 -1.08071,0.75883 -0.60036,0.11623 -1.26407,0.0466 -1.87703,0.12916 -1.77168,0.23867 -3.5202,0.97781 -4.62691,2.42976 -0.53301,0.6993 -0.85655,1.52944 -1.19877,2.33207 -0.77796,1.82458 -1.67835,4.11825 -1.43867,6.14299 0.095,0.80248 0.28811,1.60044 0.85403,2.21317 0.9666,1.04656 2.71538,1.03152 3.90762,0.4033 m 10.46585,7.96314 v -2.90086 c 0.9228,-0.21919 1.69506,-0.96873 1.96577,-1.87703 0.2777,-0.93179 -0.0613,-1.94539 -1.11258,-2.135 -0.34938,-0.063 -0.72687,-0.0264 -1.08071,-0.0264 -0.80413,0 -1.99918,-0.22332 -2.67106,0.31468 -1.4682,1.17566 0.15049,3.39528 1.53347,3.72377 v 2.90086 c -2.46769,-0.002 -5.85066,-0.3959 -7.29793,-2.67334 -1.29982,-2.04541 -0.47193,-4.64471 -0.10103,-6.82555 0.47933,-2.81835 0.86803,-5.7732 2.00395,-8.41818 0.72339,-1.68442 1.91389,-3.23869 3.68862,-3.88515 0.91069,-0.33173 1.82854,-0.3854 2.7871,-0.38078 4.89177,0.0236 6.37408,5.42981 7.07721,9.32821 l 0.51191,2.84398 c 0.46827,2.59624 1.56458,6.00726 -0.64985,8.13154 -0.3685,0.3535 -0.7964,0.61536 -1.25131,0.84135 -0.67965,0.33764 -1.4177,0.56193 -2.16143,0.70779 -1.0558,0.20706 -2.16734,0.32942 -3.24213,0.33013 m -7.10995,-20.19226 c -0.9456,2.02293 -1.71128,3.88768 -2.19417,6.08612 -0.19831,0.90284 -0.35962,1.81872 -0.51253,2.73022 -0.0739,0.44027 -0.0872,1.02193 -0.29019,1.42177 -0.40169,0.79123 -1.75781,1.18207 -2.57731,0.99394 -1.81828,-0.41739 -1.11948,-3.29383 -0.78772,-4.52026 0.48167,-1.78058 1.16729,-4.15359 2.60786,-5.38649 1.02406,-0.87643 2.43916,-1.22152 3.75406,-1.3253 m 12.85479,0 c 1.31743,0.10398 2.72805,0.44722 3.75405,1.3253 1.43857,1.23119 2.12696,3.60874 2.60786,5.38649 0.33143,1.22524 1.02434,4.1043 -0.78771,4.52026 -0.8159,0.1873 -2.17753,-0.20647 -2.57732,-0.99394 -0.19601,-0.3861 -0.20699,-0.94035 -0.28088,-1.36489 -0.16188,-0.92998 -0.31928,-1.86491 -0.52184,-2.7871 -0.48274,-2.19779 -1.24895,-4.064 -2.19416,-6.08612 m -10.23833,4.97354 c -0.80189,0.12886 -1.46096,0.72161 -1.66312,1.51074 -0.0979,0.38213 -0.10141,0.9208 0.29889,1.12741 1.12562,0.58096 0.82434,-1.38363 1.76239,-1.27312 0.85999,0.10131 0.44821,1.50983 1.47887,1.32714 0.7262,-0.12872 0.54657,-1.10861 0.32271,-1.57959 -0.3902,-0.82093 -1.31307,-1.25505 -2.19974,-1.11258 m 6.93931,0 c -0.8105,0.13024 -1.52113,0.74572 -1.67984,1.56762 -0.0745,0.38568 -0.0884,0.86201 0.31561,1.07053 1.1221,0.57911 0.82207,-1.3839 1.76239,-1.27312 0.86541,0.10195 0.43559,1.51214 1.47887,1.32714 0.72619,-0.12876 0.54659,-1.10858 0.32271,-1.57959 -0.38924,-0.81892 -1.31637,-1.25452 -2.19974,-1.11258 m -1.76327,9.64452 c -0.0154,1.83616 -2.71485,1.8318 -2.73022,0 z"
       id="path4" /></g></svg>
