<?xml version="1.0" encoding="UTF-8" standalone="no"?>
<!-- Created with Inkscape (http://www.inkscape.org/) -->

<svg
   version="1.1"
   id="svg182"
   width="32"
   height="31.999998"
   viewBox="0 0 32 31.999999"
   sodipodi:docname="favicon.svg"
   inkscape:export-filename="trosky.svg"
   inkscape:export-xdpi="96"
   inkscape:export-ydpi="96"
   inkscape:version="1.3.2 (091e20e, 2023-11-25, custom)"
   xmlns:inkscape="http://www.inkscape.org/namespaces/inkscape"
   xmlns:sodipodi="http://sodipodi.sourceforge.net/DTD/sodipodi-0.dtd"
   xmlns="http://www.w3.org/2000/svg"
   xmlns:svg="http://www.w3.org/2000/svg">
  <defs
     id="defs186" />
  <sodipodi:namedview
     id="namedview184"
     pagecolor="#ffffff"
     bordercolor="#000000"
     borderopacity="0.25"
     inkscape:showpageshadow="2"
     inkscape:pageopacity="0.0"
     inkscape:pagecheckerboard="0"
     inkscape:deskcolor="#d1d1d1"
     showgrid="false"
     inkscape:zoom="10.371267"
     inkscape:cx="21.598133"
     inkscape:cy="3.4229183"
     inkscape:window-width="1920"
     inkscape:window-height="1009"
     inkscape:window-x="1912"
     inkscape:window-y="-8"
     inkscape:window-maximized="1"
     inkscape:current-layer="g188" />
  <g
     inkscape:groupmode="layer"
     inkscape:label="Image"
     id="g188"
     transform="translate(-167.03488,-514.74123)">
    <path
       style="fill:#0f1a2c;fill-opacity:1;stroke-width:0.0359447"
       d="m 167.08489,541.70017 c 0.0287,-0.0444 0.22489,-0.35876 0.43594,-0.69842 0.21104,-0.33965 0.51497,-0.80063 0.67539,-1.02444 0.37456,-0.52252 0.61665,-0.88146 0.68798,-1.0201 0.0311,-0.0605 0.17098,-0.48763 0.31075,-0.94916 0.13979,-0.46154 0.29312,-0.92427 0.34075,-1.02832 0.17428,-0.38065 0.48594,-0.78135 1.1964,-1.5382 0.63117,-0.67239 0.65264,-0.72163 0.69604,-1.59654 0.0371,-0.74797 0.13685,-1.33912 0.30756,-1.82296 0.33412,-0.9469 0.37345,-1.1413 0.37345,-1.84571 0,-0.51368 0.0531,-0.96141 0.14135,-1.19389 0.0899,-0.23693 0.37657,-0.70647 0.73883,-1.21066 0.33102,-0.46069 0.37757,-0.5821 0.37845,-0.98663 9e-4,-0.49745 0.0687,-1.08973 0.16014,-1.40577 0.0499,-0.17231 0.24447,-0.70279 0.43232,-1.17888 l 0.34153,-0.86562 v -1.39543 -1.39544 l 0.42884,-0.14344 c 0.23586,-0.0788 0.43804,-0.13424 0.44931,-0.12301 0.0114,0.0114 0.0204,0.16241 0.0204,0.33586 0,0.17347 0.0115,0.32183 0.027,0.32971 0.0149,0.008 0.15232,-0.0243 0.30552,-0.0716 l 0.27858,-0.0859 v -0.38455 -0.38454 l 0.45829,-0.15851 0.45831,-0.15849 0.39539,0.1175 c 0.21746,0.0647 0.40727,0.13597 0.4218,0.15854 0.0146,0.0225 0.0266,0.19005 0.0271,0.37218 l 5.4e-4,0.33112 0.293,0.09 c 0.16115,0.0496 0.30672,0.0815 0.3235,0.0712 0.0168,-0.0105 0.0305,-0.15443 0.0305,-0.32014 0,-0.1657 0.0157,-0.311 0.035,-0.32287 0.0192,-0.0115 0.23756,0.0385 0.48526,0.11188 l 0.45033,0.13341 v 1.37791 1.37791 l 0.2336,0.27841 c 0.34432,0.41038 0.47787,0.70393 0.52073,1.14458 0.0191,0.19579 0.0354,0.53389 0.0365,0.75136 0.003,0.56815 0.0547,1.02637 0.1649,1.45446 0.0844,0.32731 0.0938,0.41929 0.076,0.73582 -0.0131,0.234 -0.0529,0.46971 -0.11264,0.66732 -0.1563,0.51693 -0.15734,0.6488 -0.009,1.13821 0.0711,0.23396 0.16219,0.54065 0.2027,0.68154 0.0679,0.23623 0.0824,0.25788 0.18578,0.27856 0.21312,0.0427 0.21098,0.0453 0.21098,-0.26512 0,-0.33378 -0.0325,-0.31675 0.43893,-0.23024 l 0.31311,0.0575 0.0105,0.29305 0.0105,0.29308 0.26959,0.0426 c 0.46066,0.073 0.43135,0.0878 0.43135,-0.2164 0,-0.14497 0.006,-0.2706 0.0154,-0.27914 0.009,-0.009 0.19456,0.008 0.41337,0.0368 l 0.39781,0.0524 v 0.29492 0.29492 l 0.24262,0.041 c 0.13346,0.0225 0.2952,0.0503 0.35945,0.0615 l 0.11686,0.0206 v -0.27147 c 0,-0.1493 0.0128,-0.27919 0.0278,-0.28864 0.0152,-0.009 0.20069,0.009 0.41201,0.0401 l 0.38421,0.0575 0.0105,0.28941 0.0105,0.2894 0.2516,0.0434 c 0.1384,0.0239 0.30347,0.0444 0.36687,0.0457 l 0.1152,0.003 0.0105,-0.26061 0.0105,-0.26059 0.10943,0.005 c 0.0603,0.003 0.226,0.0242 0.36843,0.0481 l 0.25894,0.0436 v 0.28432 c 0,0.15636 0.0115,0.28443 0.027,0.28458 0.038,3.7e-4 0.4739,0.0689 0.59309,0.0932 l 0.0988,0.02 v -0.2904 c 0,-0.15973 0.003,-0.29041 0.009,-0.29037 0.005,0 0.14618,0.0242 0.31385,0.0538 0.16767,0.0296 0.32942,0.0447 0.35946,0.0337 0.03,-0.0115 0.17589,-0.18481 0.32416,-0.3862 l 0.26959,-0.36615 0.0179,-1.48972 0.0179,-1.48971 0.55716,-0.1717 c 0.30642,-0.0944 0.57734,-0.16458 0.60207,-0.15589 0.0317,0.0115 0.045,0.11636 0.045,0.3563 0,0.18726 0.0139,0.34907 0.0308,0.35956 0.0171,0.0105 0.15851,-0.0174 0.3145,-0.0621 l 0.28363,-0.0811 0.0105,-0.39917 0.0105,-0.39916 0.31337,-0.096 c 0.17238,-0.0527 0.34089,-0.10378 0.37451,-0.11353 0.0337,-0.0105 0.12609,-1.5e-4 0.20553,0.0212 l 0.14437,0.039 0.0105,0.40222 0.0105,0.40223 0.26957,0.0765 0.2696,0.0765 0.0105,-0.38993 c 0.005,-0.21445 0.0139,-0.38991 0.0188,-0.38991 0.005,0 0.12147,0.031 0.25944,0.0688 0.13798,0.038 0.31962,0.087 0.40364,0.10918 l 0.15277,0.0405 -8.8e-4,1.66107 -8.9e-4,1.66107 0.28979,0.57511 c 0.1594,0.31631 0.31333,0.67217 0.34208,0.79079 0.0288,0.11865 0.0676,0.49921 0.0864,0.84576 l 0.034,0.63009 0.251,0.54124 c 0.3408,0.73489 0.42463,0.94143 0.4506,1.1101 0.0128,0.079 0.0385,0.52962 0.0584,1.00119 0.0342,0.8098 0.0422,0.87567 0.14581,1.18617 0.15099,0.4529 0.24743,0.57985 0.61019,0.8033 0.45489,0.28018 0.79763,0.58924 1.35053,1.21782 0.5969,0.67857 0.93911,0.98476 1.59108,1.42364 0.80368,0.54099 1.04348,0.78123 1.31173,1.31421 l 0.13116,0.2606 h -15.99999 -16.00001 l 0.0522,-0.0809 z m 14.76529,-0.73989 c 0,-0.0166 -0.17388,-0.12855 -0.3864,-0.24906 -0.38735,-0.21963 -0.90161,-0.45288 -1.57183,-0.71287 -0.43029,-0.16693 -0.70072,-0.34005 -1.36665,-0.87489 -0.83458,-0.67025 -1.22269,-0.85489 -2.01292,-0.95755 -0.68871,-0.0894 -0.68773,-0.0891 -1.25807,-0.53435 -0.99775,-0.77901 -1.77417,-0.88752 -2.81267,-0.39309 -0.14333,0.0682 -0.26062,0.13723 -0.26062,0.15332 0,0.0162 0.18199,0.0389 0.40439,0.0507 0.87038,0.0462 1.45227,0.33392 2.31506,1.14472 0.43153,0.40555 0.49405,0.43867 1.0464,0.55429 0.45938,0.0961 0.79617,0.22863 1.7337,0.68193 1.31965,0.63805 1.39377,0.66188 2.57006,0.82568 0.62502,0.087 1.30602,0.22393 1.4917,0.29984 0.11483,0.047 0.10778,0.0462 0.10778,0.0115 z m 13.28559,-0.93565 c -0.87538,-0.86342 -1.18598,-1.13902 -1.40296,-1.2449 -0.10043,-0.0491 -0.43827,-0.16172 -0.75074,-0.25047 -0.87383,-0.24821 -0.96087,-0.29659 -1.58854,-0.88308 -0.21747,-0.2032 -0.48692,-0.43731 -0.59875,-0.52024 -0.28715,-0.21289 -0.7958,-0.46778 -1.10395,-0.55318 -0.25643,-0.071 -0.96696,-0.16769 -0.99883,-0.13584 -0.009,0.009 0.15866,0.10841 0.37222,0.22139 0.72656,0.38415 1.15676,0.75845 1.67585,1.45814 0.40891,0.55113 0.48516,0.64002 0.6301,0.73452 0.0721,0.0471 0.49513,0.20986 0.93995,0.36178 0.77003,0.263 0.96597,0.34339 2.0129,0.82569 0.52037,0.23973 1.40965,0.62692 1.44179,0.62775 0.0115,3.2e-4 -0.271,-0.28838 -0.62904,-0.64156 z m -9.47711,-0.88754 c -0.0995,-0.11981 -0.78735,-0.54757 -1.05948,-0.65878 -0.82466,-0.33698 -0.95779,-0.43651 -1.38689,-1.03714 -0.65419,-0.91567 -0.80265,-1.02411 -1.81141,-1.32322 -0.45591,-0.13518 -0.74015,-0.2947 -1.17746,-0.66086 -0.48683,-0.40755 -0.6486,-0.5176 -1.00895,-0.68623 -0.53834,-0.25191 -1.23852,-0.38568 -1.79782,-0.34346 -0.31643,0.0239 -0.82672,0.11392 -0.91366,0.1613 -0.025,0.0136 0.12006,0.062 0.32221,0.10751 0.96528,0.21769 1.60799,0.46198 2.12161,0.80637 0.16355,0.1097 0.54811,0.43721 0.85453,0.72786 0.33211,0.31501 0.61868,0.55604 0.70951,0.59674 0.0839,0.0376 0.29666,0.0998 0.47302,0.13832 0.33938,0.0741 0.75344,0.21213 0.99213,0.33082 0.16295,0.081 0.4609,0.3061 1.06036,0.80101 0.22736,0.18771 0.47992,0.37389 0.56124,0.41376 0.0813,0.0398 0.3761,0.11917 0.65503,0.17621 0.59537,0.12172 0.99634,0.2498 1.24596,0.39784 0.20727,0.12287 0.22337,0.12814 0.16007,0.0519 z"
       id="path300" />
  </g>
</svg>
