<?xml version="1.0" encoding="UTF-8" standalone="no"?>
<!-- Created with Inkscape (http://www.inkscape.org/) -->

<svg
   version="1.1"
   id="svg1"
   width="25"
   height="25"
   viewBox="0 0 25 25"
   sodipodi:docname="logo__trosky.png"
   inkscape:export-filename="logo__trosky.png"
   inkscape:export-xdpi="96"
   inkscape:export-ydpi="96"
   xml:space="preserve"
   inkscape:version="1.3.2 (091e20e, 2023-11-25, custom)"
   xmlns:inkscape="http://www.inkscape.org/namespaces/inkscape"
   xmlns:sodipodi="http://sodipodi.sourceforge.net/DTD/sodipodi-0.dtd"
   xmlns="http://www.w3.org/2000/svg"
   xmlns:svg="http://www.w3.org/2000/svg"><defs
     id="defs1"><inkscape:path-effect
       effect="fillet_chamfer"
       id="path-effect17"
       is_visible="true"
       lpeversion="1"
       nodesatellites_param="F,0,0,1,0,4.4176101,0,1 @ F,0,0,1,0,3.2287925,0,1 @ F,0,0,1,0,2.938433,0,1 @ F,0,0,1,0,4.0132276,0,1 @ F,0,0,1,0,3.9912041,0,1"
       radius="0"
       unit="px"
       method="auto"
       mode="F"
       chamfer_steps="1"
       flexible="false"
       use_knot_distance="true"
       apply_no_radius="true"
       apply_with_radius="true"
       only_selected="false"
       hide_knots="false" /><inkscape:path-effect
       effect="fillet_chamfer"
       id="path-effect16"
       is_visible="true"
       lpeversion="1"
       nodesatellites_param="F,0,0,1,0,0,0,1 @ F,0,0,1,0,0,0,1 @ F,0,0,1,0,0,0,1 @ F,0,0,1,0,0,0,1 @ F,0,0,1,0,0,0,1 @ F,0,0,1,0,3.622879,0,1"
       radius="0"
       unit="px"
       method="auto"
       mode="F"
       chamfer_steps="1"
       flexible="false"
       use_knot_distance="true"
       apply_no_radius="true"
       apply_with_radius="true"
       only_selected="false"
       hide_knots="false" /></defs><sodipodi:namedview
     id="namedview1"
     pagecolor="#ffffff"
     bordercolor="#000000"
     borderopacity="0.25"
     inkscape:showpageshadow="2"
     inkscape:pageopacity="0.0"
     inkscape:pagecheckerboard="0"
     inkscape:deskcolor="#d1d1d1"
     inkscape:zoom="5.6568543"
     inkscape:cx="-12.551145"
     inkscape:cy="3.9774756"
     inkscape:window-width="1920"
     inkscape:window-height="1009"
     inkscape:window-x="1912"
     inkscape:window-y="-8"
     inkscape:window-maximized="1"
     inkscape:current-layer="g1" /><g
     inkscape:groupmode="layer"
     inkscape:label="Image"
     id="g1"
     transform="translate(-138.3134,-220.25041)"><g
       id="g9" /><g
       id="g19"
       transform="matrix(0.23454393,0,0,0.25463824,0.24061309,118.82564)"><path
         d="m 640.71553,424.80807 a 6.116207,6.116207 0 0 1 4.84766,1.02735 l 35.95703,25.9707 a 7.7087167,7.7087167 0 0 1 3.19531,6.32813 l -0.35156,34.34179 a 4.0544259,4.0544259 0 0 1 -4.05469,4.01172 h -77.97851 a 2.9278251,2.9278251 0 0 1 -2.92774,-2.9375 l 0.13086,-36.42187 a 6.3433703,6.3433703 0 0 1 2.62891,-5.11914 l 36.23633,-26.17383 a 6.116207,6.116207 0 0 1 2.3164,-1.02735 z"
         style="fill:#efb60b;stroke-width:1.13386"
         id="path19" /><path
         d="m 642.72725,398.41354 a 5.0137437,5.0137437 0 0 0 -3.97265,0.85938 l -50.06836,36.52734 6.62304,8.625 46.37305,-33.42383 47.2793,33.42383 6.31445,-8.93359 -50.64844,-36.2461 a 5.0137437,5.0137437 0 0 0 -1.90039,-0.83203 z"
         style="fill:#efb60b;stroke-width:1.13386"
         id="path18" /></g></g></svg>
