<?xml version="1.0" encoding="UTF-8" standalone="no"?>
<!-- Created with Inkscape (http://www.inkscape.org/) -->

<svg
   version="1.1"
   id="svg182"
   width="35"
   height="25.000179"
   viewBox="0 0 35 25.00018"
   sodipodi:docname="dog.svg"
   inkscape:export-filename="trosky.svg"
   inkscape:export-xdpi="96"
   inkscape:export-ydpi="96"
   inkscape:version="1.3.2 (091e20e, 2023-11-25, custom)"
   xml:space="preserve"
   xmlns:inkscape="http://www.inkscape.org/namespaces/inkscape"
   xmlns:sodipodi="http://sodipodi.sourceforge.net/DTD/sodipodi-0.dtd"
   xmlns="http://www.w3.org/2000/svg"
   xmlns:svg="http://www.w3.org/2000/svg"><defs
     id="defs186" /><sodipodi:namedview
     id="namedview184"
     pagecolor="#ffffff"
     bordercolor="#000000"
     borderopacity="0.25"
     inkscape:showpageshadow="2"
     inkscape:pageopacity="0.0"
     inkscape:pagecheckerboard="0"
     inkscape:deskcolor="#d1d1d1"
     showgrid="false"
     inkscape:zoom="8"
     inkscape:cx="13.4375"
     inkscape:cy="23.1875"
     inkscape:window-width="1920"
     inkscape:window-height="1009"
     inkscape:window-x="1912"
     inkscape:window-y="-8"
     inkscape:window-maximized="1"
     inkscape:current-layer="g188" /><g
     inkscape:groupmode="layer"
     inkscape:label="Image"
     id="g188"
     transform="translate(-167.03488,-514.74123)"><path
       style="fill:#efb60b;stroke:none;stroke-width:0.0520953;fill-opacity:1"
       d="m 186.83845,514.78314 c -3.88415,0.51023 -7.17459,2.6923 -8.45679,6.54189 -0.45951,1.37958 -0.62783,2.88165 -0.42131,4.32391 0.0796,0.55583 0.14625,1.32497 0.85543,1.39616 0.46617,0.0468 0.87567,-0.30862 0.90596,-0.77102 0.0313,-0.47707 -0.15356,-0.97891 -0.17457,-1.45867 -0.0519,-1.18486 0.15088,-2.39738 0.61642,-3.49038 1.91758,-4.50214 7.65541,-6.37358 11.72811,-3.51965 3.4107,2.39004 4.48252,6.98798 2.40305,10.60461 -0.56922,0.99 -1.39534,1.75333 -2.19467,2.55266 -0.82511,0.82512 -1.62288,1.67497 -2.44848,2.50058 -0.91507,0.91506 -2.15883,1.83841 -2.87284,2.91733 -0.33721,0.50956 -0.0314,1.2053 0.58065,1.28578 0.63471,0.0835 1.11738,-0.63192 1.51076,-1.0253 l 3.43829,-3.43829 c 2.11867,-2.11867 4.11918,-4.16398 4.61364,-7.24124 0.80586,-5.0152 -2.51477,-9.98322 -7.53098,-11.00247 -0.81337,-0.16527 -1.7242,-0.28473 -2.55267,-0.1759 m -0.20838,11.23046 c 0.76642,0 1.5576,0.0699 2.2922,-0.19266 1.94884,-0.6966 2.4456,-3.27947 1.07112,-4.7475 -0.74264,-0.79319 -1.7192,-0.8945 -2.73817,-0.8945 -0.64539,0 -1.78528,-0.23645 -2.17611,0.41752 -0.21291,0.35627 -0.11608,0.90253 -0.11608,1.30162 v 2.86524 2.39638 c 0,0.37452 -0.0551,0.78763 0.2261,1.08291 0.41034,0.43081 1.14538,0.30159 1.37695,-0.24943 0.22537,-0.53624 0.064,-1.40282 0.064,-1.97958 m 0,-1.66704 v -2.50058 c 0.54572,0 1.26136,-0.12132 1.7712,0.10243 0.93775,0.41152 0.94576,1.73052 0.10423,2.24158 -0.50091,0.3042 -1.3124,0.15657 -1.87543,0.15657 m -12.91963,7.13705 c -1.0045,-0.29692 -1.63212,1.01094 -0.67723,1.51076 -1.21295,0.92673 -0.98981,2.45296 -0.98981,3.80295 0,0.92997 -0.009,1.83206 0.78147,2.47622 1.06922,0.87177 3.16592,0.50921 3.43824,-1.01755 h 5.73048 c 0.26636,1.49334 2.31063,1.88855 3.38619,1.05855 1.0384,-0.80132 0.83353,-2.13869 0.83353,-3.29865 0,-0.53211 0.0559,-1.09532 -0.077,-1.61495 -0.13015,-0.50866 -0.41572,-1.12203 -0.9128,-1.35447 v -0.1042 c 0.38913,-0.18583 0.54366,-0.64704 0.36624,-1.04186 -0.25414,-0.56556 -0.81766,-0.23685 -1.09111,-0.58965 -0.56672,-0.73118 -0.38156,-1.71862 -1.20265,-2.35224 -0.59924,-0.46244 -1.31582,-0.44434 -2.03172,-0.44434 h -4.01133 c -0.77223,0 -1.5758,-0.07 -2.2401,0.40575 -0.81654,0.58475 -0.96313,1.68425 -1.30238,2.56368 m 9.37715,0.93771 h -7.91848 c 0.11938,-0.51602 0.32964,-1.01142 0.50302,-1.51076 0.0774,-0.22294 0.12929,-0.49545 0.33613,-0.63857 0.33228,-0.22992 1.06288,-0.0908 1.45304,-0.0908 h 3.43829 c 0.36817,0 1.03427,-0.1269 1.34885,0.0908 0.20684,0.14312 0.25871,0.41563 0.33612,0.63857 0.17339,0.49934 0.38365,0.99474 0.50303,1.51076 m -7.91848,2.20573 c 0.44407,-0.0858 1.25983,-0.11993 1.60949,0.20235 0.47349,0.43642 0.2869,1.28091 -0.3592,1.42647 -0.44238,0.0997 -1.31373,0.12344 -1.66143,-0.19958 -0.48788,-0.45324 -0.24367,-1.30275 0.41114,-1.42924 m 6.45981,0.003 c 0.43824,-0.0955 1.24568,-0.11564 1.60531,0.17706 0.50532,0.41129 0.33377,1.27348 -0.30293,1.44058 -0.42513,0.11158 -1.31031,0.13156 -1.66158,-0.15628 -0.52876,-0.43329 -0.29979,-1.31775 0.3592,-1.46136 z"
       id="path5" /></g></svg>
