<?xml version="1.0" encoding="UTF-8" standalone="no"?>
<!-- Created with Inkscape (http://www.inkscape.org/) -->

<svg
   version="1.1"
   id="svg182"
   width="36.22747"
   height="25.000179"
   viewBox="0 0 36.22747 25.00018"
   sodipodi:docname="trosky.svg"
   inkscape:export-filename="trosky.svg"
   inkscape:export-xdpi="96"
   inkscape:export-ydpi="96"
   inkscape:version="1.3.2 (091e20e, 2023-11-25, custom)"
   xmlns:inkscape="http://www.inkscape.org/namespaces/inkscape"
   xmlns:sodipodi="http://sodipodi.sourceforge.net/DTD/sodipodi-0.dtd"
   xmlns="http://www.w3.org/2000/svg"
   xmlns:svg="http://www.w3.org/2000/svg">
  <defs
     id="defs186" />
  <sodipodi:namedview
     id="namedview184"
     pagecolor="#ffffff"
     bordercolor="#000000"
     borderopacity="0.25"
     inkscape:showpageshadow="2"
     inkscape:pageopacity="0.0"
     inkscape:pagecheckerboard="0"
     inkscape:deskcolor="#d1d1d1"
     showgrid="false"
     inkscape:zoom="10.371267"
     inkscape:cx="21.598132"
     inkscape:cy="3.5193385"
     inkscape:window-width="1920"
     inkscape:window-height="1009"
     inkscape:window-x="1912"
     inkscape:window-y="-8"
     inkscape:window-maximized="1"
     inkscape:current-layer="g188" />
  <g
     inkscape:groupmode="layer"
     inkscape:label="Image"
     id="g188"
     transform="translate(-167.03488,-514.74123)">
    <path
       style="fill:#efb60b;fill-opacity:1;stroke-width:0.0406933"
       d="m 167.09439,539.64833 c 0.0325,-0.0503 0.25459,-0.40616 0.49352,-0.79068 0.23892,-0.38452 0.583,-0.90641 0.76461,-1.15977 0.42405,-0.59155 0.69811,-0.99791 0.77888,-1.15487 0.0352,-0.0685 0.19356,-0.55205 0.3518,-1.07455 0.15825,-0.52252 0.33184,-1.04638 0.38576,-1.16417 0.1973,-0.43094 0.55014,-0.88458 1.35446,-1.74142 0.71455,-0.76121 0.73885,-0.81695 0.78799,-1.80745 0.042,-0.84678 0.15493,-1.51603 0.34819,-2.06378 0.37826,-1.072 0.42279,-1.29208 0.42279,-2.08955 0,-0.58154 0.06,-1.08842 0.16001,-1.35161 0.10187,-0.26824 0.42633,-0.7998 0.83645,-1.37061 0.37474,-0.52155 0.42745,-0.65899 0.42845,-1.11697 0.001,-0.56316 0.0777,-1.23369 0.18129,-1.59148 0.0565,-0.19507 0.27676,-0.79563 0.48943,-1.33462 l 0.38666,-0.97997 v -1.57978 -1.57978 l 0.48549,-0.1624 c 0.26702,-0.0893 0.49592,-0.15198 0.50867,-0.13926 0.013,0.013 0.0232,0.18386 0.0232,0.38023 0,0.19638 0.013,0.36435 0.0306,0.37326 0.0168,0.009 0.17244,-0.0275 0.34588,-0.0811 l 0.31539,-0.0972 v -0.43535 -0.43535 l 0.51883,-0.17944 0.51885,-0.17943 0.44763,0.13303 c 0.24619,0.0732 0.46107,0.15392 0.47752,0.17947 0.0165,0.0255 0.0301,0.21516 0.0306,0.42135 l 6.2e-4,0.37487 0.3317,0.10187 c 0.18244,0.0561 0.34724,0.0923 0.36624,0.0806 0.019,-0.0116 0.0345,-0.17483 0.0345,-0.36243 0,-0.1876 0.0178,-0.35209 0.0396,-0.36552 0.0217,-0.0131 0.26895,0.0435 0.54937,0.12665 l 0.50982,0.15104 v 1.55994 1.55994 l 0.26446,0.31519 c 0.38981,0.4646 0.54101,0.79693 0.58952,1.2958 0.0216,0.22164 0.0401,0.60441 0.0413,0.85061 0.003,0.64321 0.0619,1.16196 0.18669,1.64661 0.0955,0.37055 0.10622,0.47468 0.0861,0.83304 -0.0149,0.2649 -0.0599,0.53175 -0.12752,0.75546 -0.17695,0.58523 -0.17813,0.73451 -0.0101,1.28858 0.0804,0.26487 0.18362,0.61207 0.22948,0.77158 0.0769,0.26744 0.0933,0.29195 0.21032,0.31536 0.24128,0.0483 0.23886,0.0513 0.23886,-0.30015 0,-0.37787 -0.0368,-0.35859 0.49691,-0.26065 l 0.35448,0.0651 0.0116,0.33178 0.0116,0.33179 0.3052,0.0482 c 0.52152,0.0826 0.48833,0.0993 0.48833,-0.245 0,-0.16412 0.007,-0.30634 0.0175,-0.31602 0.0101,-0.0101 0.22027,0.009 0.46798,0.0417 l 0.45037,0.0593 v 0.33388 0.33389 l 0.27467,0.0464 c 0.15109,0.0255 0.3342,0.057 0.40694,0.0697 l 0.1323,0.0233 v -0.30734 c 0,-0.16902 0.0145,-0.31607 0.0315,-0.32677 0.0172,-0.0101 0.2272,0.0101 0.46643,0.0455 l 0.43498,0.0651 0.0116,0.32764 0.0116,0.32764 0.28485,0.0491 c 0.15667,0.0271 0.34356,0.0503 0.41532,0.0517 l 0.13042,0.003 0.0116,-0.29504 0.0116,-0.29502 0.12389,0.006 c 0.0683,0.003 0.25587,0.0274 0.4171,0.0545 l 0.29315,0.0494 v 0.32188 c 0,0.17702 0.013,0.322 0.0306,0.32218 0.0429,4.2e-4 0.53651,0.078 0.67144,0.10549 l 0.11187,0.0227 v -0.32877 c 0,-0.18083 0.004,-0.32876 0.0101,-0.32873 0.006,0 0.16549,0.0274 0.35532,0.0609 0.18982,0.0335 0.37294,0.0506 0.40694,0.0381 0.0339,-0.0131 0.19913,-0.20922 0.36698,-0.43721 l 0.30521,-0.41452 0.0203,-1.68652 0.0203,-1.68652 0.63075,-0.19438 c 0.34692,-0.10694 0.65363,-0.18632 0.68162,-0.17648 0.0358,0.013 0.0509,0.13172 0.0509,0.40337 0,0.212 0.0158,0.39518 0.0349,0.40706 0.0193,0.0116 0.17946,-0.0197 0.35606,-0.0703 l 0.32111,-0.0919 0.0116,-0.4519 0.0116,-0.4519 0.35477,-0.10868 c 0.19514,-0.0597 0.38592,-0.11753 0.42399,-0.12854 0.0381,-0.0116 0.14274,-1.6e-4 0.23267,0.024 l 0.16344,0.0441 0.0116,0.45536 0.0116,0.45537 0.30519,0.0866 0.30521,0.0867 0.0116,-0.44144 c 0.006,-0.24278 0.0158,-0.44142 0.0212,-0.44142 0.006,0 0.13752,0.0351 0.29371,0.0778 0.15621,0.0429 0.36185,0.0985 0.45697,0.12361 l 0.17295,0.0458 -0.001,1.88051 -0.001,1.8805 0.32807,0.65109 c 0.18046,0.3581 0.35473,0.76097 0.38727,0.89526 0.0326,0.13433 0.0765,0.56516 0.0978,0.95749 l 0.0385,0.71333 0.28416,0.61275 c 0.38581,0.83197 0.48072,1.06579 0.51012,1.25675 0.0145,0.0895 0.0435,0.59958 0.0661,1.13345 0.0387,0.91678 0.0478,0.99136 0.16508,1.34288 0.17094,0.51273 0.28012,0.65645 0.6908,0.90942 0.51499,0.3172 0.90301,0.66709 1.52895,1.3787 0.67576,0.76822 1.06317,1.11486 1.80127,1.61171 0.90986,0.61247 1.18134,0.88445 1.48502,1.48784 l 0.14849,0.29502 h -18.11373 -18.11374 l 0.0591,-0.0916 z m 16.7159,-0.83763 c 0,-0.0187 -0.19686,-0.14554 -0.43745,-0.28196 -0.43853,-0.24865 -1.02073,-0.51271 -1.77948,-0.80705 -0.48713,-0.18898 -0.79329,-0.38497 -1.5472,-0.99046 -0.94483,-0.75881 -1.38422,-0.96784 -2.27884,-1.08406 -0.7797,-0.10129 -0.77859,-0.10085 -1.42426,-0.60494 -1.12956,-0.88192 -2.00855,-1.00477 -3.18425,-0.44503 -0.16227,0.0772 -0.29504,0.15537 -0.29504,0.17359 0,0.0183 0.20602,0.044 0.4578,0.0574 0.98537,0.0523 1.64412,0.37803 2.6209,1.29595 0.48855,0.45913 0.55932,0.49662 1.18464,0.62751 0.52007,0.10883 0.90135,0.25884 1.96274,0.77203 1.49398,0.72233 1.5779,0.7493 2.90959,0.93475 0.7076,0.0985 1.47856,0.25352 1.68877,0.33945 0.12998,0.0532 0.12201,0.0523 0.12201,0.0131 z m 15.04072,-1.05925 c -0.99102,-0.97749 -1.34266,-1.2895 -1.5883,-1.40937 -0.11375,-0.0555 -0.49617,-0.18308 -0.84992,-0.28356 -0.98927,-0.281 -1.0878,-0.33577 -1.7984,-0.99975 -0.24621,-0.23003 -0.55124,-0.49507 -0.67786,-0.58896 -0.32507,-0.24101 -0.90092,-0.52957 -1.24978,-0.62626 -0.2903,-0.0804 -1.09471,-0.18984 -1.13078,-0.15379 -0.0101,0.0101 0.17962,0.12274 0.42139,0.25064 0.82254,0.43491 1.30958,0.85866 1.89725,1.65077 0.46292,0.62394 0.54925,0.72458 0.71333,0.83156 0.0817,0.0533 0.56054,0.23758 1.06413,0.40958 0.87176,0.29774 1.09359,0.38875 2.27882,0.93477 0.58911,0.2714 1.59588,0.70974 1.63226,0.71068 0.013,3.6e-4 -0.30679,-0.32648 -0.71214,-0.72631 z m -10.72911,-1.0048 c -0.11259,-0.13564 -0.89137,-0.61991 -1.19945,-0.74581 -0.93361,-0.38149 -1.08432,-0.49418 -1.57011,-1.17416 -0.74061,-1.03663 -0.90869,-1.15939 -2.05071,-1.49802 -0.51614,-0.15304 -0.83793,-0.33364 -1.33302,-0.74816 -0.55113,-0.4614 -0.73428,-0.58598 -1.14223,-0.77689 -0.60946,-0.28519 -1.40215,-0.43664 -2.03533,-0.38883 -0.35823,0.0271 -0.93594,0.12897 -1.03437,0.1826 -0.0282,0.0154 0.13593,0.0701 0.36479,0.12172 1.09279,0.24645 1.82041,0.523 2.40188,0.91289 0.18516,0.12419 0.62052,0.49497 0.96742,0.82402 0.37599,0.35662 0.70042,0.62949 0.80325,0.67558 0.0949,0.0426 0.33585,0.11303 0.53551,0.15658 0.38421,0.0839 0.85298,0.24016 1.1232,0.37453 0.18448,0.0917 0.52179,0.34654 1.20044,0.90683 0.25739,0.2125 0.54332,0.42328 0.63539,0.46842 0.092,0.0451 0.42578,0.13491 0.74156,0.19949 0.67401,0.13781 1.12797,0.28279 1.41056,0.45039 0.23465,0.13911 0.25288,0.14508 0.18122,0.0587 z"
       id="path300" />
  </g>
</svg>
