<?xml version="1.0" encoding="UTF-8" standalone="no"?>
<!-- Created with Inkscape (http://www.inkscape.org/) -->

<svg
   version="1.1"
   id="svg182"
   width="2260.9648"
   height="1560.1796"
   viewBox="0 0 2260.9648 1560.1796"
   sodipodi:docname="trosky.svg"
   inkscape:export-filename="trosky.svg"
   inkscape:export-xdpi="96"
   inkscape:export-ydpi="96"
   inkscape:version="1.2.1 (9c6d41e410, 2022-07-14)"
   xmlns:inkscape="http://www.inkscape.org/namespaces/inkscape"
   xmlns:sodipodi="http://sodipodi.sourceforge.net/DTD/sodipodi-0.dtd"
   xmlns="http://www.w3.org/2000/svg"
   xmlns:svg="http://www.w3.org/2000/svg">
  <defs
     id="defs186" />
  <sodipodi:namedview
     id="namedview184"
     pagecolor="#ffffff"
     bordercolor="#000000"
     borderopacity="0.25"
     inkscape:showpageshadow="2"
     inkscape:pageopacity="0.0"
     inkscape:pagecheckerboard="0"
     inkscape:deskcolor="#d1d1d1"
     showgrid="false"
     inkscape:zoom="0.45834959"
     inkscape:cx="1061.4169"
     inkscape:cy="785.42668"
     inkscape:window-width="2560"
     inkscape:window-height="1369"
     inkscape:window-x="-8"
     inkscape:window-y="-8"
     inkscape:window-maximized="1"
     inkscape:current-layer="g188" />
  <g
     inkscape:groupmode="layer"
     inkscape:label="Image"
     id="g188"
     transform="translate(-167.03495,-514.74112)">
    <path
       style="fill:#efb60b;stroke-width:2.53968;fill-opacity:1"
       d="m 170.72448,2069.2064 c 2.02928,-3.1428 15.88986,-25.3489 30.80129,-49.3467 14.91142,-23.9979 36.38523,-56.5693 47.71956,-72.381 26.4651,-36.9195 43.56893,-62.2802 48.60982,-72.0765 2.19972,-4.2748 12.08007,-34.4531 21.95629,-67.0629 9.87624,-32.6097 20.71014,-65.3046 24.07538,-72.6552 12.31324,-26.8957 34.33394,-55.2078 84.53186,-108.6833 44.5953,-47.507 46.11159,-50.985 49.17844,-112.8029 2.62182,-52.8478 9.66885,-94.6158 21.73105,-128.801 23.60698,-66.904 26.38613,-80.6396 26.38613,-130.4092 0,-36.2946 3.74497,-67.9292 9.98598,-84.3543 6.36125,-16.7414 26.60711,-49.9161 52.20369,-85.5405 23.38712,-32.5493 26.67751,-41.1273 26.73943,-69.7096 0.0762,-35.14726 4.84302,-76.99533 11.31413,-99.32582 3.52764,-12.17319 17.27319,-49.65527 30.54565,-83.29352 l 24.13176,-61.16046 v -98.59413 -98.59414 l 30.29938,-10.13572 c 16.66469,-5.57465 30.9504,-9.48475 31.74603,-8.68909 0.79566,0.79565 1.44666,11.47444 1.44666,23.73061 0,12.25618 0.85714,22.73875 1.90476,23.29458 1.04762,0.55581 10.7619,-1.72256 21.5873,-5.06308 l 19.68254,-6.07365 V 564.30844 537.138 l 32.38095,-11.19845 32.38096,-11.19843 27.93651,8.3008 c 15.36508,4.56544 28.77615,9.60582 29.80239,11.20086 1.02623,1.59505 1.88337,13.4283 1.90476,26.29611 l 0.0389,23.39598 20.70185,6.35759 c 11.386,3.49669 21.67172,5.75817 22.85714,5.02555 1.18545,-0.73262 2.15533,-10.91144 2.15533,-22.61958 0,-11.70814 1.11019,-21.97366 2.46712,-22.81229 1.3569,-0.83863 16.78547,2.7172 34.28572,7.90186 l 31.81866,9.42662 v 97.35614 97.35615 l 16.505,19.67149 c 24.328,28.9952 33.764,49.73633 36.7915,80.87134 1.345,13.83213 2.5044,37.72076 2.5765,53.08584 0.1882,40.14362 3.8587,72.51843 11.6508,102.76612 5.9573,23.1255 6.6292,29.6242 5.375,51.9902 -0.927,16.5322 -3.7389,33.1864 -7.9606,47.1485 -11.0439,36.5246 -11.1166,45.8404 -0.6265,80.4205 5.0147,16.5306 11.4593,38.1997 14.3214,48.1537 4.7996,16.6913 5.8197,18.2211 13.1266,19.6825 15.0583,3.0116 14.9068,3.202 14.9068,-18.7329 0,-23.5826 -2.2925,-22.38 31.0125,-16.2674 l 22.1234,4.0604 0.7337,20.7066 0.7336,20.7067 19.0477,3.0152 c 32.5477,5.1523 30.4762,6.1916 30.4762,-15.2903 0,-10.2434 0.4944,-19.1187 1.0987,-19.723 0.6042,-0.6043 13.7471,0.5679 29.2064,2.6049 l 28.1076,3.7035 v 20.8381 20.8381 l 17.1429,2.8951 c 9.4286,1.5923 20.8571,3.5511 25.3968,4.3529 l 8.254,1.4578 v -19.1804 c 0,-10.5492 0.8839,-19.7267 1.9644,-20.3944 1.0804,-0.6678 14.1803,0.6116 29.1109,2.8429 l 27.1466,4.0569 0.7303,20.4482 0.7303,20.4482 17.7778,3.0696 c 9.7778,1.6883 21.442,3.1399 25.9205,3.2257 l 8.1427,0.1562 0.7462,-18.4127 0.7462,-18.4127 7.7368,0.3182 c 4.2552,0.175 15.9695,1.7069 26.0317,3.4041 l 18.295,3.0857 v 20.088 c 0,11.0484 0.8571,20.0967 1.9047,20.1072 2.6744,0.027 33.484,4.8653 41.9048,6.5807 l 6.9841,1.4228 v -20.5193 c 0,-11.2856 0.2857,-20.5177 0.6349,-20.5158 0.3492,0 10.328,1.7093 22.175,3.7942 11.847,2.0849 23.2755,3.1535 25.3968,2.3747 2.1212,-0.7787 12.4282,-13.0575 22.9044,-27.2862 l 19.0476,-25.8703 1.2699,-105.2557 1.2698,-105.2557 39.3651,-12.1316 c 21.6508,-6.6724 40.7937,-11.6289 42.5397,-11.0145 2.2376,0.7874 3.1746,8.2174 3.1746,25.174 0,13.2312 0.9818,24.6636 2.1818,25.4052 1.1999,0.7416 11.1999,-1.2332 22.2222,-4.3884 l 20.0404,-5.7369 0.7156,-28.2033 0.7155,-28.20345 22.1416,-6.77876 c 12.1779,-3.72833 24.0854,-7.33948 26.4612,-8.02477 2.3758,-0.68528 8.9101,-0.0102 14.5207,1.50093 l 10.2011,2.74687 0.7174,28.41938 0.7174,28.4194 19.0476,5.4043 19.0477,5.4043 0.7181,-27.5502 c 0.3949,-15.1525 0.9893,-27.55013 1.3208,-27.55013 0.3316,0 8.5799,2.18753 18.3296,4.86133 9.7497,2.6737 22.5838,6.1463 28.5203,7.7169 l 10.7937,2.8556 -0.073,117.3625 -0.073,117.3624 20.476,40.6349 c 11.2619,22.3492 22.1382,47.4921 24.1697,55.873 2.0315,8.381 4.7769,35.2718 6.1007,59.7575 l 2.4071,44.5193 17.7342,38.2421 c 24.0787,51.9234 30.002,66.5158 31.8374,78.4335 0.8604,5.5873 2.7154,37.42 4.1221,70.7393 2.4157,57.2163 2.9878,61.8706 10.3024,83.8096 10.6686,31.9986 17.4824,40.9688 43.1135,56.7564 32.1399,19.7968 56.3566,41.6338 95.4218,86.0448 42.1744,47.9458 66.3525,69.5796 112.4174,100.5878 56.7851,38.2244 73.7273,55.1986 92.6807,92.8558 l 9.2674,18.4127 H 1297.5177 167.03495 l 3.68961,-5.7143 z m 1043.24382,-52.2763 c 0,-1.1646 -12.2857,-9.0837 -27.3016,-17.598 -27.3685,-15.5184 -63.704,-31.9976 -111.0578,-50.3677 -30.4012,-11.7938 -49.5091,-24.0258 -96.56125,-61.8145 -58.96709,-47.3579 -86.38959,-60.403 -142.22223,-67.6563 -48.66194,-6.3218 -48.592,-6.2921 -88.88889,-37.7547 -70.49613,-55.0412 -125.35459,-62.7082 -198.73016,-27.7745 -10.12699,4.8214 -18.4127,9.6963 -18.4127,10.8331 0,1.1367 12.85714,2.749 28.57143,3.5829 61.49689,3.2632 102.60996,23.5923 163.57019,80.8803 30.49092,28.6542 34.90791,30.9938 73.9343,39.1631 32.45691,6.7941 56.25333,16.1541 122.49552,48.1822 93.23889,45.0809 98.47669,46.7637 181.58729,58.3381 44.1614,6.1502 92.2778,15.822 105.3968,21.1857 8.1135,3.3172 7.6191,3.2653 7.6191,0.8003 z m 938.6947,-66.1081 c -61.8496,-61.0055 -83.7954,-80.479 -99.1264,-87.9596 -7.0959,-3.4624 -30.9656,-11.4262 -53.0439,-17.6975 -61.7402,-17.5371 -67.8895,-20.9554 -112.2387,-62.394 -15.3651,-14.3567 -34.4025,-30.8974 -42.3055,-36.7573 -20.2866,-15.042 -56.226,-33.051 -77.9982,-39.0844 -18.1181,-5.0208 -68.3215,-11.8489 -70.5719,-9.5985 -0.625,0.625 11.2092,7.664 26.2982,15.6422 51.3352,27.143 81.7309,53.5898 118.4078,103.0245 28.8912,38.9408 34.2789,45.2215 44.5195,51.8989 5.098,3.3242 34.9835,14.8267 66.412,25.5611 54.4072,18.5828 68.2516,24.2618 142.2223,58.3397 36.7658,16.9379 99.5988,44.2951 101.8692,44.3535 0.8536,0.023 -19.1464,-20.3759 -44.4444,-45.3286 z m -669.6064,-62.7102 c -7.0286,-8.469 -55.6308,-38.6892 -74.8582,-46.5459 -58.2668,-23.8088 -67.6722,-30.8424 -97.991,-73.2797 -46.2213,-64.6959 -56.7107,-72.3584 -127.9851,-93.4917 -32.212,-9.5511 -52.2949,-20.8226 -83.1944,-46.6928 -34.3951,-28.7969 -45.8263,-36.572 -71.2862,-48.486 -38.03665,-17.7993 -87.50848,-27.2506 -127.02523,-24.2675 -22.35769,1.6878 -58.41257,8.0529 -64.55545,11.3967 -1.76226,0.9592 8.48271,4.3796 22.76663,7.601 68.20114,15.3807 113.61252,32.6403 149.90155,56.9735 11.5566,7.7492 38.7264,30.8913 60.3772,51.4268 23.4657,22.257 43.7134,39.2868 50.131,42.164 5.9212,2.6548 20.9608,7.0519 33.4212,9.7714 23.9791,5.2335 53.2351,14.989 70.0986,23.3745 11.5142,5.7256 32.5658,21.6283 74.9206,56.596 16.0635,13.2618 33.908,26.4171 39.6544,29.2339 5.7464,2.8168 26.5728,8.4193 46.281,12.45 42.0648,8.603 70.3968,17.6496 88.0329,28.1095 14.6452,8.6861 15.7825,9.0547 11.3105,3.6663 z"
       id="path300" />
  </g>
</svg>
