<?xml version="1.0" encoding="UTF-8" standalone="no"?>
<!-- Created with Inkscape (http://www.inkscape.org/) -->

<svg
   version="1.1"
   id="svg182"
   width="35"
   height="25.000179"
   viewBox="0 0 35 25.00018"
   sodipodi:docname="tv.svg"
   inkscape:export-filename="trosky.svg"
   inkscape:export-xdpi="96"
   inkscape:export-ydpi="96"
   inkscape:version="1.3.2 (091e20e, 2023-11-25, custom)"
   xml:space="preserve"
   xmlns:inkscape="http://www.inkscape.org/namespaces/inkscape"
   xmlns:sodipodi="http://sodipodi.sourceforge.net/DTD/sodipodi-0.dtd"
   xmlns="http://www.w3.org/2000/svg"
   xmlns:svg="http://www.w3.org/2000/svg"><defs
     id="defs186" /><sodipodi:namedview
     id="namedview184"
     pagecolor="#ffffff"
     bordercolor="#000000"
     borderopacity="0.25"
     inkscape:showpageshadow="2"
     inkscape:pageopacity="0.0"
     inkscape:pagecheckerboard="0"
     inkscape:deskcolor="#d1d1d1"
     showgrid="false"
     inkscape:zoom="5.6568543"
     inkscape:cx="13.34664"
     inkscape:cy="15.821514"
     inkscape:window-width="1920"
     inkscape:window-height="1009"
     inkscape:window-x="1912"
     inkscape:window-y="-8"
     inkscape:window-maximized="1"
     inkscape:current-layer="g188" /><g
     inkscape:groupmode="layer"
     inkscape:label="Image"
     id="g188"
     transform="translate(-167.03488,-514.74123)"><path
       style="fill:#efb60b;stroke:none;stroke-width:0.612342;fill-opacity:1"
       d="m 181.1673,535.07609 v 1.69464 c -0.84657,0 -2.17633,-0.25059 -2.94969,0.12049 -0.7294,0.34998 -0.65388,1.4771 0.12528,1.72148 0.84017,0.26352 2.06979,0.0409 2.94993,0.0409 h 6.40199 2.134 c 0.33052,0 0.70847,0.0523 1.00399,-0.12611 0.61213,-0.36947 0.59201,-1.32216 -0.0627,-1.63634 -0.77337,-0.37107 -2.10314,-0.12049 -2.9497,-0.12049 v -1.69464 h 9.4147 c 0.83652,0 2.6943,0.35209 3.19537,-0.50309 0.21788,-0.37185 0.13115,-0.9038 0.13115,-1.31709 v -2.8244 -10.4817 c 0,-1.0615 0.20137,-2.35285 -0.0245,-3.38928 -0.0992,-0.45525 -0.46332,-0.72785 -0.91696,-0.75066 -2.47583,-0.12449 -4.98966,-0.003 -7.46899,-0.003 h -14.93798 -5.96263 c -0.66173,0 -1.80308,-0.21766 -2.38235,0.13987 -0.44886,0.27703 -0.44206,0.77586 -0.44206,1.24095 v 2.88717 10.92104 2.63612 c 0,0.42165 -0.0305,0.86439 0.3206,1.16778 0.71077,0.61429 2.49701,0.2758 3.38251,0.2758 h 9.0381 m 17.51133,-17.3858 v 15.50286 h -28.36967 v -15.50252 h 28.36962 m -12.74122,17.3858 v 1.69465 h -2.88718 v -1.69465 z"
       id="path2" /></g></svg>
