<?xml version="1.0" encoding="UTF-8" standalone="no"?>
<!-- Created with Inkscape (http://www.inkscape.org/) -->

<svg
   version="1.1"
   id="svg182"
   width="35"
   height="25.000179"
   viewBox="0 0 35 25.00018"
   sodipodi:docname="wifi.svg"
   inkscape:export-filename="trosky.svg"
   inkscape:export-xdpi="96"
   inkscape:export-ydpi="96"
   inkscape:version="1.3.2 (091e20e, 2023-11-25, custom)"
   xml:space="preserve"
   xmlns:inkscape="http://www.inkscape.org/namespaces/inkscape"
   xmlns:sodipodi="http://sodipodi.sourceforge.net/DTD/sodipodi-0.dtd"
   xmlns="http://www.w3.org/2000/svg"
   xmlns:svg="http://www.w3.org/2000/svg"><defs
     id="defs186" /><sodipodi:namedview
     id="namedview184"
     pagecolor="#ffffff"
     bordercolor="#000000"
     borderopacity="0.25"
     inkscape:showpageshadow="2"
     inkscape:pageopacity="0.0"
     inkscape:pagecheckerboard="0"
     inkscape:deskcolor="#d1d1d1"
     showgrid="false"
     inkscape:zoom="7.3335932"
     inkscape:cx="-1.022691"
     inkscape:cy="2.2499203"
     inkscape:window-width="1920"
     inkscape:window-height="1009"
     inkscape:window-x="1912"
     inkscape:window-y="-8"
     inkscape:window-maximized="1"
     inkscape:current-layer="g188" /><g
     inkscape:groupmode="layer"
     inkscape:label="Image"
     id="g188"
     transform="translate(-167.03488,-514.74123)"><path
       style="fill:#efb60b;stroke:none;stroke-width:0.283034;fill-opacity:1"
       d="m 182.98937,514.87103 c -4.44671,0.58385 -8.57238,1.73921 -12.17805,4.56101 -0.83698,0.65499 -2.03213,1.42011 -2.55049,2.37054 -0.60611,1.11134 0.12691,2.39991 1.32622,2.60188 0.88757,0.14946 1.45876,-0.50513 2.06189,-1.02812 1.10808,-0.9608 2.254,-1.87496 3.54389,-2.58502 3.52595,-1.94097 7.59322,-2.81927 11.59817,-2.32096 3.08853,0.38426 6.08879,1.49411 8.63418,3.29512 0.69475,0.49159 1.36606,1.02339 1.99745,1.59445 0.64582,0.58411 1.23476,1.22785 2.19079,1.01903 1.11829,-0.24427 1.75135,-1.46788 1.22428,-2.51194 -0.64082,-1.26943 -2.3957,-2.35373 -3.54393,-3.13512 -3.98087,-2.70894 -9.43726,-4.49992 -14.3044,-3.86087 m 0.51548,6.83003 c -3.37055,0.44255 -6.33567,1.3884 -9.0208,3.56833 -0.51066,0.4146 -1.14065,0.88327 -1.42297,1.49463 -0.46722,1.01169 0.14132,2.24702 1.22967,2.47959 0.92814,0.19829 1.54842,-0.41554 2.19077,-0.97021 0.62731,-0.54168 1.2814,-1.02613 1.99745,-1.4442 2.22532,-1.29925 4.98062,-1.89833 7.53881,-1.52972 1.90673,0.27476 3.75871,0.89465 5.34805,2.00827 0.98362,0.68918 2.01256,2.17167 3.35056,1.94822 1.14899,-0.19186 1.79904,-1.5238 1.26275,-2.55639 -0.4105,-0.79041 -1.33708,-1.41645 -2.03595,-1.93978 -2.81869,-2.11076 -6.87876,-3.52612 -10.43834,-3.05874 m 0.12889,6.76564 c -2.01095,0.27374 -3.86228,1.02569 -5.33685,2.4582 -0.82546,0.8019 -0.85641,2.29472 0.24655,2.90003 1.35939,0.74607 2.22761,-0.53559 3.28614,-1.14116 1.18455,-0.67767 2.53462,-0.8794 3.86605,-0.60715 0.74216,0.15174 1.45487,0.49971 2.0619,0.94757 0.69829,0.51518 1.23527,1.15953 2.19076,0.99992 1.05513,-0.17627 1.68418,-1.29275 1.34636,-2.29866 -0.16555,-0.49292 -0.57402,-0.87476 -0.95975,-1.20491 -1.77398,-1.51834 -4.36724,-2.37154 -6.70116,-2.05384 m 0.38661,6.64269 c -2.96358,0.63228 -1.91994,5.20211 1.03094,4.57254 2.96357,-0.63226 1.91992,-5.20211 -1.03094,-4.57254 z"
       id="path1" /></g></svg>
